%TF.GenerationSoftware,KiCad,Pcbnew,(7.0.0)*%
%TF.CreationDate,2023-06-28T18:16:18+03:00*%
%TF.ProjectId,GeoLock,47656f4c-6f63-46b2-9e6b-696361645f70,rev?*%
%TF.SameCoordinates,Original*%
%TF.FileFunction,Legend,Top*%
%TF.FilePolarity,Positive*%
%FSLAX46Y46*%
G04 Gerber Fmt 4.6, Leading zero omitted, Abs format (unit mm)*
G04 Created by KiCad (PCBNEW (7.0.0)) date 2023-06-28 18:16:18*
%MOMM*%
%LPD*%
G01*
G04 APERTURE LIST*
%ADD10C,0.200000*%
%ADD11C,0.150000*%
%ADD12C,0.120000*%
%ADD13C,0.100000*%
G04 APERTURE END LIST*
D10*
X145122076Y-83937904D02*
X145122076Y-83137904D01*
X145122076Y-83137904D02*
X145426838Y-83137904D01*
X145426838Y-83137904D02*
X145503028Y-83176000D01*
X145503028Y-83176000D02*
X145541123Y-83214095D01*
X145541123Y-83214095D02*
X145579219Y-83290285D01*
X145579219Y-83290285D02*
X145579219Y-83404571D01*
X145579219Y-83404571D02*
X145541123Y-83480761D01*
X145541123Y-83480761D02*
X145503028Y-83518857D01*
X145503028Y-83518857D02*
X145426838Y-83556952D01*
X145426838Y-83556952D02*
X145122076Y-83556952D01*
X145845885Y-83137904D02*
X146036361Y-83937904D01*
X146036361Y-83937904D02*
X146188742Y-83366476D01*
X146188742Y-83366476D02*
X146341123Y-83937904D01*
X146341123Y-83937904D02*
X146531600Y-83137904D01*
X147293505Y-83937904D02*
X147026838Y-83556952D01*
X146836362Y-83937904D02*
X146836362Y-83137904D01*
X146836362Y-83137904D02*
X147141124Y-83137904D01*
X147141124Y-83137904D02*
X147217314Y-83176000D01*
X147217314Y-83176000D02*
X147255409Y-83214095D01*
X147255409Y-83214095D02*
X147293505Y-83290285D01*
X147293505Y-83290285D02*
X147293505Y-83404571D01*
X147293505Y-83404571D02*
X147255409Y-83480761D01*
X147255409Y-83480761D02*
X147217314Y-83518857D01*
X147217314Y-83518857D02*
X147141124Y-83556952D01*
X147141124Y-83556952D02*
X146836362Y-83556952D01*
X147636362Y-83937904D02*
X147636362Y-83137904D01*
X148093505Y-83937904D02*
X147750647Y-83480761D01*
X148093505Y-83137904D02*
X147636362Y-83595047D01*
X148436362Y-83518857D02*
X148703028Y-83518857D01*
X148817314Y-83937904D02*
X148436362Y-83937904D01*
X148436362Y-83937904D02*
X148436362Y-83137904D01*
X148436362Y-83137904D02*
X148817314Y-83137904D01*
X149312553Y-83556952D02*
X149312553Y-83937904D01*
X149045886Y-83137904D02*
X149312553Y-83556952D01*
X149312553Y-83556952D02*
X149579219Y-83137904D01*
X127012619Y-113744904D02*
X126745952Y-113363952D01*
X126555476Y-113744904D02*
X126555476Y-112944904D01*
X126555476Y-112944904D02*
X126860238Y-112944904D01*
X126860238Y-112944904D02*
X126936428Y-112983000D01*
X126936428Y-112983000D02*
X126974523Y-113021095D01*
X126974523Y-113021095D02*
X127012619Y-113097285D01*
X127012619Y-113097285D02*
X127012619Y-113211571D01*
X127012619Y-113211571D02*
X126974523Y-113287761D01*
X126974523Y-113287761D02*
X126936428Y-113325857D01*
X126936428Y-113325857D02*
X126860238Y-113363952D01*
X126860238Y-113363952D02*
X126555476Y-113363952D01*
X127355476Y-113325857D02*
X127622142Y-113325857D01*
X127736428Y-113744904D02*
X127355476Y-113744904D01*
X127355476Y-113744904D02*
X127355476Y-112944904D01*
X127355476Y-112944904D02*
X127736428Y-112944904D01*
X128041190Y-113706809D02*
X128155476Y-113744904D01*
X128155476Y-113744904D02*
X128345952Y-113744904D01*
X128345952Y-113744904D02*
X128422143Y-113706809D01*
X128422143Y-113706809D02*
X128460238Y-113668714D01*
X128460238Y-113668714D02*
X128498333Y-113592523D01*
X128498333Y-113592523D02*
X128498333Y-113516333D01*
X128498333Y-113516333D02*
X128460238Y-113440142D01*
X128460238Y-113440142D02*
X128422143Y-113402047D01*
X128422143Y-113402047D02*
X128345952Y-113363952D01*
X128345952Y-113363952D02*
X128193571Y-113325857D01*
X128193571Y-113325857D02*
X128117381Y-113287761D01*
X128117381Y-113287761D02*
X128079286Y-113249666D01*
X128079286Y-113249666D02*
X128041190Y-113173476D01*
X128041190Y-113173476D02*
X128041190Y-113097285D01*
X128041190Y-113097285D02*
X128079286Y-113021095D01*
X128079286Y-113021095D02*
X128117381Y-112983000D01*
X128117381Y-112983000D02*
X128193571Y-112944904D01*
X128193571Y-112944904D02*
X128384048Y-112944904D01*
X128384048Y-112944904D02*
X128498333Y-112983000D01*
X128841191Y-113325857D02*
X129107857Y-113325857D01*
X129222143Y-113744904D02*
X128841191Y-113744904D01*
X128841191Y-113744904D02*
X128841191Y-112944904D01*
X128841191Y-112944904D02*
X129222143Y-112944904D01*
X129450715Y-112944904D02*
X129907858Y-112944904D01*
X129679286Y-113744904D02*
X129679286Y-112944904D01*
D11*
X142882400Y-73234400D02*
X144406400Y-73234400D01*
X142882400Y-75266400D02*
X142882400Y-73234400D01*
D12*
%TO.C,C206*%
X140478236Y-96327400D02*
X140262564Y-96327400D01*
X140478236Y-95607400D02*
X140262564Y-95607400D01*
%TO.C,R409*%
X147013041Y-68509000D02*
X146705759Y-68509000D01*
X147013041Y-67749000D02*
X146705759Y-67749000D01*
%TO.C,C410*%
X148883036Y-69708200D02*
X148667364Y-69708200D01*
X148883036Y-68988200D02*
X148667364Y-68988200D01*
%TO.C,C504*%
X116658400Y-70616052D02*
X116658400Y-70093548D01*
X118128400Y-70616052D02*
X118128400Y-70093548D01*
%TO.C,C502*%
X113676400Y-69087000D02*
X113676400Y-68462000D01*
X113363900Y-68774500D02*
X113988900Y-68774500D01*
X113665837Y-68222000D02*
X114301400Y-68222000D01*
X113665837Y-68222000D02*
X112601400Y-67157563D01*
X117056963Y-68222000D02*
X116421400Y-68222000D01*
X117056963Y-68222000D02*
X118121400Y-67157563D01*
X112601400Y-67157563D02*
X112601400Y-62702000D01*
X118121400Y-67157563D02*
X118121400Y-62702000D01*
X112601400Y-62702000D02*
X114301400Y-62702000D01*
X118121400Y-62702000D02*
X116421400Y-62702000D01*
%TO.C,R407*%
X148735759Y-75216600D02*
X149043041Y-75216600D01*
X148735759Y-75976600D02*
X149043041Y-75976600D01*
D13*
%TO.C,D401*%
X147700300Y-68129000D02*
G75*
G03*
X147700300Y-68129000I-50000J0D01*
G01*
D12*
%TO.C,R101*%
X111931400Y-74959159D02*
X111931400Y-75266441D01*
X111171400Y-74959159D02*
X111171400Y-75266441D01*
%TO.C,D301*%
X133775000Y-96463400D02*
X130555000Y-96463400D01*
X130555000Y-96463400D02*
X130555000Y-102273400D01*
X133775000Y-102273400D02*
X133775000Y-96463400D01*
%TO.C,D501*%
X118455400Y-78544800D02*
X118455400Y-81844800D01*
X118455400Y-78544800D02*
X123965400Y-78544800D01*
X118455400Y-81844800D02*
X123965400Y-81844800D01*
%TO.C,C408*%
X170814764Y-78132800D02*
X171030436Y-78132800D01*
X170814764Y-78852800D02*
X171030436Y-78852800D01*
D13*
%TO.C,D402*%
X149879400Y-66605800D02*
G75*
G03*
X149879400Y-66605800I-50000J0D01*
G01*
%TO.C,D602*%
X172293000Y-107725200D02*
G75*
G03*
X172293000Y-107725200I-50000J0D01*
G01*
D12*
%TO.C,C204*%
X149642564Y-95709800D02*
X149858236Y-95709800D01*
X149642564Y-96429800D02*
X149858236Y-96429800D01*
%TO.C,C506*%
X126841400Y-83805400D02*
X127841400Y-83805400D01*
X127341400Y-83305400D02*
X127341400Y-84305400D01*
X128081400Y-83119837D02*
X128081400Y-84805400D01*
X128081400Y-83119837D02*
X129145837Y-82055400D01*
X128081400Y-89510963D02*
X128081400Y-87825400D01*
X128081400Y-89510963D02*
X129145837Y-90575400D01*
X129145837Y-82055400D02*
X136601400Y-82055400D01*
X129145837Y-90575400D02*
X136601400Y-90575400D01*
X136601400Y-82055400D02*
X136601400Y-84805400D01*
X136601400Y-90575400D02*
X136601400Y-87825400D01*
%TO.C,R205*%
X145395759Y-106382400D02*
X145703041Y-106382400D01*
X145395759Y-107142400D02*
X145703041Y-107142400D01*
%TO.C,C402*%
X143765000Y-76106964D02*
X143765000Y-76322636D01*
X143045000Y-76106964D02*
X143045000Y-76322636D01*
%TO.C,Q101*%
X110944000Y-70338800D02*
X110944000Y-72013800D01*
X110944000Y-70338800D02*
X110944000Y-69688800D01*
X114064000Y-70338800D02*
X114064000Y-70988800D01*
X114064000Y-70338800D02*
X114064000Y-69688800D01*
%TO.C,U502*%
X140099000Y-90084800D02*
X140099000Y-88284800D01*
X140099000Y-90084800D02*
X140099000Y-90884800D01*
X136979000Y-90084800D02*
X136979000Y-89284800D01*
X136979000Y-90084800D02*
X136979000Y-90884800D01*
%TO.C,R602*%
X153193559Y-103893200D02*
X153500841Y-103893200D01*
X153193559Y-104653200D02*
X153500841Y-104653200D01*
%TO.C,TP201*%
X149420400Y-88322800D02*
G75*
G03*
X149420400Y-88322800I-950000J0D01*
G01*
%TO.C,C501*%
X121692236Y-78268800D02*
X121476564Y-78268800D01*
X121692236Y-77548800D02*
X121476564Y-77548800D01*
%TO.C,U402*%
X168802400Y-83150800D02*
X166492400Y-83150800D01*
X168802400Y-83150800D02*
X168802400Y-80190800D01*
X150982400Y-83040800D02*
X150982400Y-80190800D01*
X150982400Y-67230800D02*
X150982400Y-70190800D01*
X150982400Y-67230800D02*
X153292400Y-67230800D01*
X168802400Y-67230800D02*
X168802400Y-70190800D01*
X168802400Y-67230800D02*
X166492400Y-67230800D01*
%TO.C,J201*%
X153016600Y-121563400D02*
X153016600Y-121163400D01*
X153016600Y-121563400D02*
X139196600Y-121563400D01*
X153016600Y-118643400D02*
X153016600Y-112863400D01*
X153016600Y-110343400D02*
X153016600Y-107643400D01*
X151606600Y-122463400D02*
X150806600Y-122263400D01*
X151606600Y-121563400D02*
X151606600Y-122563400D01*
X151106600Y-123063400D02*
X141106600Y-123063400D01*
X150806600Y-122263400D02*
X149106600Y-121963400D01*
X149106600Y-121963400D02*
X148306600Y-121863400D01*
X148306600Y-121863400D02*
X147006600Y-121763400D01*
X147006600Y-121763400D02*
X145206600Y-121763400D01*
X145206600Y-121763400D02*
X143906600Y-121863400D01*
X143906600Y-121863400D02*
X142406600Y-122063400D01*
X142406600Y-122063400D02*
X141106600Y-122363400D01*
X141106600Y-122363400D02*
X140606600Y-122463400D01*
X140606600Y-121563400D02*
X140606600Y-122563400D01*
X139196600Y-121563400D02*
X139196600Y-121163400D01*
X139196600Y-118643400D02*
X139196600Y-112863400D01*
X139196600Y-110343400D02*
X139196600Y-107643400D01*
X139196600Y-107643400D02*
X153016600Y-107643400D01*
X151106600Y-123063400D02*
G75*
G03*
X151606600Y-122563400I-1J500001D01*
G01*
X140606600Y-122563400D02*
G75*
G03*
X141106600Y-123063400I500000J0D01*
G01*
%TO.C,U601*%
X169536400Y-107470800D02*
X168846400Y-107470800D01*
X168846400Y-107920800D02*
X168846400Y-107470800D01*
X168846400Y-107920800D02*
X156426400Y-107920800D01*
X168846400Y-99550800D02*
X168846400Y-97870800D01*
X168846400Y-92150800D02*
X168846400Y-91700800D01*
X168846400Y-91700800D02*
X156426400Y-91700800D01*
X156426400Y-107920800D02*
X156426400Y-107470800D01*
X156426400Y-99550800D02*
X156426400Y-97870800D01*
X156426400Y-92150800D02*
X156426400Y-91710800D01*
%TO.C,R404*%
X170738959Y-77147800D02*
X171046241Y-77147800D01*
X170738959Y-77907800D02*
X171046241Y-77907800D01*
%TO.C,C510*%
X139098036Y-93968600D02*
X138882364Y-93968600D01*
X139098036Y-93248600D02*
X138882364Y-93248600D01*
%TO.C,C407*%
X146195400Y-71236548D02*
X146195400Y-71759052D01*
X144725400Y-71236548D02*
X144725400Y-71759052D01*
%TO.C,U401*%
X142714600Y-75201700D02*
X142714600Y-73401700D01*
X142714600Y-75201700D02*
X142714600Y-76001700D01*
X139594600Y-75201700D02*
X139594600Y-74401700D01*
X139594600Y-75201700D02*
X139594600Y-76001700D01*
%TO.C,C505*%
X131774400Y-78648800D02*
X131774400Y-77648800D01*
X131274400Y-78148800D02*
X132274400Y-78148800D01*
X131088837Y-77408800D02*
X132774400Y-77408800D01*
X131088837Y-77408800D02*
X130024400Y-76344363D01*
X137479963Y-77408800D02*
X135794400Y-77408800D01*
X137479963Y-77408800D02*
X138544400Y-76344363D01*
X130024400Y-76344363D02*
X130024400Y-68888800D01*
X138544400Y-76344363D02*
X138544400Y-68888800D01*
X130024400Y-68888800D02*
X132774400Y-68888800D01*
X138544400Y-68888800D02*
X135794400Y-68888800D01*
%TO.C,C208*%
X135885210Y-98118496D02*
X135732707Y-98270999D01*
X135376093Y-97609379D02*
X135223590Y-97761882D01*
%TO.C,C511*%
X139092836Y-93003400D02*
X138877164Y-93003400D01*
X139092836Y-92283400D02*
X138877164Y-92283400D01*
%TO.C,R406*%
X170736959Y-74810800D02*
X171044241Y-74810800D01*
X170736959Y-75570800D02*
X171044241Y-75570800D01*
%TO.C,TP202*%
X152620800Y-90354000D02*
G75*
G03*
X152620800Y-90354000I-950000J0D01*
G01*
%TO.C,J601*%
X168965200Y-89562600D02*
X169605200Y-89562600D01*
X169605200Y-89562600D02*
X169605200Y-90192600D01*
X171765200Y-89562600D02*
X171125200Y-89562600D01*
X169015200Y-86842600D02*
X171715200Y-86842600D01*
%TO.C,C508*%
X139143636Y-86913000D02*
X138927964Y-86913000D01*
X139143636Y-86193000D02*
X138927964Y-86193000D01*
%TO.C,C401*%
X159851600Y-64203820D02*
X159851600Y-64484980D01*
X158831600Y-64203820D02*
X158831600Y-64484980D01*
%TO.C,TP204*%
X152633400Y-94037800D02*
G75*
G03*
X152633400Y-94037800I-950000J0D01*
G01*
%TO.C,C211*%
X134592000Y-109656564D02*
X134592000Y-109872236D01*
X133872000Y-109656564D02*
X133872000Y-109872236D01*
%TO.C,C101*%
X165656400Y-116266236D02*
X165656400Y-116050564D01*
X166376400Y-116266236D02*
X166376400Y-116050564D01*
%TO.C,FB501*%
X141233400Y-86355821D02*
X141233400Y-86681379D01*
X140213400Y-86355821D02*
X140213400Y-86681379D01*
%TO.C,R206*%
X145481159Y-93576000D02*
X145788441Y-93576000D01*
X145481159Y-94336000D02*
X145788441Y-94336000D01*
%TO.C,D101*%
X114304400Y-74059800D02*
X114304400Y-72359800D01*
X114304400Y-74059800D02*
X111644400Y-74059800D01*
X114304400Y-72359800D02*
X111644400Y-72359800D01*
%TO.C,D202*%
X134844000Y-112198400D02*
X134844000Y-112848400D01*
X134844000Y-112198400D02*
X137684000Y-112198400D01*
X134844000Y-114498400D02*
X137684000Y-114498400D01*
%TO.C,C203*%
X139091236Y-101893400D02*
X138875564Y-101893400D01*
X139091236Y-101173400D02*
X138875564Y-101173400D01*
%TO.C,R102*%
X157488641Y-114787800D02*
X157181359Y-114787800D01*
X157488641Y-114027800D02*
X157181359Y-114027800D01*
%TO.C,Y201*%
X135058822Y-99326021D02*
X136685168Y-100952367D01*
X136685168Y-100952367D02*
X138594356Y-99043179D01*
%TO.C,R601*%
X169972400Y-96479441D02*
X169972400Y-96172159D01*
X170732400Y-96479441D02*
X170732400Y-96172159D01*
%TO.C,D601*%
X152247000Y-105066200D02*
X152247000Y-106766200D01*
X152247000Y-105066200D02*
X154907000Y-105066200D01*
X152247000Y-106766200D02*
X154907000Y-106766200D01*
%TO.C,FB401*%
X148125179Y-71077400D02*
X147799621Y-71077400D01*
X148125179Y-70057400D02*
X147799621Y-70057400D01*
%TO.C,U201*%
X141439500Y-96082400D02*
X141439500Y-96532400D01*
X141439500Y-96532400D02*
X140149500Y-96532400D01*
X141439500Y-103302400D02*
X141439500Y-102852400D01*
X141889500Y-96082400D02*
X141439500Y-96082400D01*
X141889500Y-103302400D02*
X141439500Y-103302400D01*
X148209500Y-96082400D02*
X148659500Y-96082400D01*
X148209500Y-103302400D02*
X148659500Y-103302400D01*
X148659500Y-96082400D02*
X148659500Y-96532400D01*
X148659500Y-103302400D02*
X148659500Y-102852400D01*
%TO.C,R402*%
X143785000Y-78166759D02*
X143785000Y-78474041D01*
X143025000Y-78166759D02*
X143025000Y-78474041D01*
%TO.C,C503*%
X117173400Y-73521800D02*
X117173400Y-74146800D01*
X117485900Y-73834300D02*
X116860900Y-73834300D01*
X117183963Y-74386800D02*
X116548400Y-74386800D01*
X117183963Y-74386800D02*
X118248400Y-75451237D01*
X113792837Y-74386800D02*
X114428400Y-74386800D01*
X113792837Y-74386800D02*
X112728400Y-75451237D01*
X118248400Y-75451237D02*
X118248400Y-79906800D01*
X112728400Y-75451237D02*
X112728400Y-79906800D01*
X118248400Y-79906800D02*
X116548400Y-79906800D01*
X112728400Y-79906800D02*
X114428400Y-79906800D01*
%TO.C,SW401*%
X145670000Y-79880000D02*
X145670000Y-80180000D01*
X145670000Y-82680000D02*
X145670000Y-82380000D01*
X148970000Y-79880000D02*
X145670000Y-79880000D01*
X148970000Y-80180000D02*
X148970000Y-79880000D01*
X148970000Y-82380000D02*
X148970000Y-82680000D01*
X148970000Y-82680000D02*
X145670000Y-82680000D01*
%TO.C,C507*%
X139138436Y-85947800D02*
X138922764Y-85947800D01*
X139138436Y-85227800D02*
X138922764Y-85227800D01*
%TO.C,L501*%
X117694400Y-82036400D02*
X117694400Y-83686400D01*
X117694400Y-82036400D02*
X126414400Y-82036400D01*
X117694400Y-91356400D02*
X117694400Y-89706400D01*
X117694400Y-91356400D02*
X126414400Y-91356400D01*
X126414400Y-82036400D02*
X126414400Y-83686400D01*
X126414400Y-91356400D02*
X126414400Y-89706400D01*
%TO.C,C509*%
X139138436Y-87878200D02*
X138922764Y-87878200D01*
X139138436Y-87158200D02*
X138922764Y-87158200D01*
%TO.C,C405*%
X140908548Y-77534600D02*
X141431052Y-77534600D01*
X140908548Y-79004600D02*
X141431052Y-79004600D01*
%TO.C,R401*%
X145182900Y-76553142D02*
X145182900Y-77027658D01*
X144137900Y-76553142D02*
X144137900Y-77027658D01*
%TO.C,R103*%
X161958559Y-114027800D02*
X162265841Y-114027800D01*
X161958559Y-114787800D02*
X162265841Y-114787800D01*
%TO.C,D201*%
X134844000Y-108684400D02*
X134844000Y-109334400D01*
X134844000Y-108684400D02*
X137684000Y-108684400D01*
X134844000Y-110984400D02*
X137684000Y-110984400D01*
%TO.C,K301*%
X130261400Y-107573400D02*
X130261400Y-101073400D01*
X130261400Y-107573400D02*
X111061400Y-107573400D01*
X130261400Y-98673400D02*
X130261400Y-92173400D01*
X126161400Y-99873400D02*
X127061400Y-99873400D01*
X126161400Y-99873400D02*
X126161400Y-96173400D01*
X125261400Y-101373400D02*
X120261400Y-101373400D01*
X125261400Y-98373400D02*
X125261400Y-101373400D01*
X125061400Y-93873400D02*
X122761400Y-93873400D01*
X122761400Y-105873400D02*
X125061400Y-105873400D01*
X122761400Y-105873400D02*
X122761400Y-101373400D01*
X122761400Y-98373400D02*
X122761400Y-93873400D01*
X120261400Y-101373400D02*
X120261400Y-98373400D01*
X120261400Y-98373400D02*
X125261400Y-101373400D01*
X120261400Y-98373400D02*
X125261400Y-98373400D01*
X119261400Y-99873400D02*
X119261400Y-96173400D01*
X119261400Y-99873400D02*
X117761400Y-99873400D01*
X119261400Y-96173400D02*
X126161400Y-96173400D01*
X117761400Y-99873400D02*
X113261400Y-102573400D01*
X114561400Y-104173400D02*
X114561400Y-101873400D01*
X114561400Y-95573400D02*
X114561400Y-97873400D01*
X111061400Y-107573400D02*
X111061400Y-92173400D01*
X111061400Y-92173400D02*
X130261400Y-92173400D01*
%TO.C,C210*%
X134592000Y-113170564D02*
X134592000Y-113386236D01*
X133872000Y-113170564D02*
X133872000Y-113386236D01*
%TO.C,C406*%
X144327348Y-73470600D02*
X144849852Y-73470600D01*
X144327348Y-74940600D02*
X144849852Y-74940600D01*
%TO.C,C207*%
X138115400Y-103061036D02*
X138115400Y-102845364D01*
X138835400Y-103061036D02*
X138835400Y-102845364D01*
%TO.C,C601*%
X151977600Y-105605820D02*
X151977600Y-105886980D01*
X150957600Y-105605820D02*
X150957600Y-105886980D01*
%TO.C,J101*%
X100736400Y-67697800D02*
X99996400Y-67697800D01*
X99996400Y-67697800D02*
X99996400Y-68197800D01*
X110157400Y-67937800D02*
X100236400Y-67937800D01*
X110157400Y-67937800D02*
X110157400Y-78217800D01*
X107197400Y-67937800D02*
X107197400Y-78217800D01*
X102296400Y-67937800D02*
X102296400Y-78217800D01*
X100796400Y-67937800D02*
X100796400Y-78217800D01*
X100236400Y-67937800D02*
X100236400Y-78217800D01*
X103873400Y-74390800D02*
X103827400Y-74343800D01*
X103657400Y-74583800D02*
X103622400Y-74548800D01*
X106171400Y-76687800D02*
X106135400Y-76652800D01*
X105965400Y-76892800D02*
X105919400Y-76845800D01*
X110157400Y-78217800D02*
X100236400Y-78217800D01*
X105580399Y-69002801D02*
G75*
G03*
X104213358Y-69002374I-684000J-1534992D01*
G01*
X106431399Y-71221799D02*
G75*
G03*
X106431826Y-69854758I-1534992J684000D01*
G01*
X103361401Y-69853800D02*
G75*
G03*
X103216148Y-70566605I1535000J-683999D01*
G01*
X103216401Y-70537800D02*
G75*
G03*
X103361645Y-71221118I1679999J0D01*
G01*
X104212400Y-72072800D02*
G75*
G03*
X105579442Y-72073226I684000J1535000D01*
G01*
X106576400Y-75617800D02*
G75*
G03*
X106576400Y-75617800I-1680000J0D01*
G01*
%TO.C,R203*%
X141001559Y-106306200D02*
X141308841Y-106306200D01*
X141001559Y-107066200D02*
X141308841Y-107066200D01*
%TO.C,R204*%
X144685041Y-106126400D02*
X144377759Y-106126400D01*
X144685041Y-105366400D02*
X144377759Y-105366400D01*
%TO.C,C409*%
X144630600Y-68950636D02*
X144630600Y-68734964D01*
X145350600Y-68950636D02*
X145350600Y-68734964D01*
%TO.C,U501*%
X118924400Y-71968800D02*
X119614400Y-71968800D01*
X119614400Y-71968800D02*
X119614400Y-77093800D01*
X128634400Y-71968800D02*
X128634400Y-73068800D01*
X129324400Y-71968800D02*
X128634400Y-71968800D01*
X118924400Y-70468800D02*
X118924400Y-71968800D01*
X129324400Y-70468800D02*
X129324400Y-71968800D01*
%TO.C,TP203*%
X145775400Y-88322800D02*
G75*
G03*
X145775400Y-88322800I-950000J0D01*
G01*
%TO.C,C205*%
X149084400Y-104848564D02*
X149084400Y-105064236D01*
X148364400Y-104848564D02*
X148364400Y-105064236D01*
%TO.C,JP201*%
X142774000Y-92183100D02*
X142774000Y-91583100D01*
X143324000Y-93383100D02*
X143924000Y-93383100D01*
X143424000Y-90883100D02*
X146224000Y-90883100D01*
X143624000Y-93083100D02*
X143324000Y-93383100D01*
X143624000Y-93083100D02*
X143924000Y-93383100D01*
X146224000Y-92883100D02*
X143424000Y-92883100D01*
X146874000Y-91583100D02*
X146874000Y-92183100D01*
X143474000Y-90883100D02*
G75*
G03*
X142774000Y-91583100I-1J-699999D01*
G01*
X142774000Y-92183100D02*
G75*
G03*
X143474000Y-92883100I699999J-1D01*
G01*
X146874000Y-91583100D02*
G75*
G03*
X146174000Y-90883100I-700000J0D01*
G01*
X146174000Y-92883100D02*
G75*
G03*
X146874000Y-92183100I0J700000D01*
G01*
%TO.C,R207*%
X142998441Y-94386800D02*
X142691159Y-94386800D01*
X142998441Y-93626800D02*
X142691159Y-93626800D01*
%TO.C,C209*%
X135290682Y-100845610D02*
X135138179Y-100693107D01*
X135799799Y-100336493D02*
X135647296Y-100183990D01*
%TO.C,U101*%
X160569000Y-114166400D02*
X160569000Y-112566400D01*
X158769000Y-112566400D02*
X158769000Y-114466400D01*
%TO.C,C404*%
X149711400Y-72415964D02*
X149711400Y-72631636D01*
X148991400Y-72415964D02*
X148991400Y-72631636D01*
%TO.C,R405*%
X170738959Y-75903000D02*
X171046241Y-75903000D01*
X170738959Y-76663000D02*
X171046241Y-76663000D01*
%TO.C,R202*%
X141001559Y-105315600D02*
X141308841Y-105315600D01*
X141001559Y-106075600D02*
X141308841Y-106075600D01*
%TO.C,J402*%
X153542400Y-64866800D02*
X154182400Y-64866800D01*
X154182400Y-64866800D02*
X154182400Y-65496800D01*
X156342400Y-64866800D02*
X155702400Y-64866800D01*
X153592400Y-62146800D02*
X156292400Y-62146800D01*
%TO.C,U602*%
X159498900Y-108388800D02*
X155898900Y-108388800D01*
X159498900Y-108388800D02*
X161698900Y-108388800D01*
X159498900Y-111608800D02*
X157298900Y-111608800D01*
X159498900Y-111608800D02*
X161698900Y-111608800D01*
%TO.C,J102*%
X100788600Y-86721800D02*
X100048600Y-86721800D01*
X100048600Y-86721800D02*
X100048600Y-87221800D01*
X110209600Y-86961800D02*
X100288600Y-86961800D01*
X110209600Y-86961800D02*
X110209600Y-112481800D01*
X107249600Y-86961800D02*
X107249600Y-112481800D01*
X102348600Y-86961800D02*
X102348600Y-112481800D01*
X100848600Y-86961800D02*
X100848600Y-112481800D01*
X100288600Y-86961800D02*
X100288600Y-112481800D01*
X103925600Y-93414800D02*
X103879600Y-93367800D01*
X103709600Y-93607800D02*
X103674600Y-93572800D01*
X106223600Y-95711800D02*
X106187600Y-95676800D01*
X106017600Y-95916800D02*
X105971600Y-95869800D01*
X103925600Y-98494800D02*
X103879600Y-98447800D01*
X103709600Y-98687800D02*
X103674600Y-98652800D01*
X106223600Y-100791800D02*
X106187600Y-100756800D01*
X106017600Y-100996800D02*
X105971600Y-100949800D01*
X103925600Y-103574800D02*
X103879600Y-103527800D01*
X103709600Y-103767800D02*
X103674600Y-103732800D01*
X106223600Y-105871800D02*
X106187600Y-105836800D01*
X106017600Y-106076800D02*
X105971600Y-106029800D01*
X103925600Y-108654800D02*
X103879600Y-108607800D01*
X103709600Y-108847800D02*
X103674600Y-108812800D01*
X106223600Y-110951800D02*
X106187600Y-110916800D01*
X106017600Y-111156800D02*
X105971600Y-111109800D01*
X110209600Y-112481800D02*
X100288600Y-112481800D01*
X105632599Y-88026801D02*
G75*
G03*
X104265558Y-88026374I-684000J-1534992D01*
G01*
X106483599Y-90245799D02*
G75*
G03*
X106484026Y-88878758I-1534992J684000D01*
G01*
X103413601Y-88877800D02*
G75*
G03*
X103268348Y-89590605I1535000J-683999D01*
G01*
X103268601Y-89561800D02*
G75*
G03*
X103413845Y-90245118I1679999J0D01*
G01*
X104264600Y-91096800D02*
G75*
G03*
X105631642Y-91097226I684000J1535000D01*
G01*
X106628600Y-94641800D02*
G75*
G03*
X106628600Y-94641800I-1680000J0D01*
G01*
X106628600Y-99721800D02*
G75*
G03*
X106628600Y-99721800I-1680000J0D01*
G01*
X106628600Y-104801800D02*
G75*
G03*
X106628600Y-104801800I-1680000J0D01*
G01*
X106628600Y-109881800D02*
G75*
G03*
X106628600Y-109881800I-1680000J0D01*
G01*
%TO.C,U301*%
X117815600Y-108063400D02*
X117815600Y-113263400D01*
X117815600Y-113263400D02*
X123115600Y-113263400D01*
X119465600Y-108063400D02*
X117815600Y-108063400D01*
X123115600Y-108063400D02*
X121465600Y-108063400D01*
X123115600Y-113263400D02*
X123115600Y-108063400D01*
X119465600Y-108063400D02*
G75*
G03*
X121465600Y-108063400I1000000J0D01*
G01*
%TO.C,SW201*%
X126500400Y-109553400D02*
X129800400Y-109553400D01*
X126500400Y-109853400D02*
X126500400Y-109553400D01*
X126500400Y-112053400D02*
X126500400Y-112353400D01*
X126500400Y-112353400D02*
X129800400Y-112353400D01*
X129800400Y-109553400D02*
X129800400Y-109853400D01*
X129800400Y-112353400D02*
X129800400Y-112053400D01*
%TO.C,R408*%
X147009041Y-66985800D02*
X146701759Y-66985800D01*
X147009041Y-66225800D02*
X146701759Y-66225800D01*
%TO.C,R301*%
X123478041Y-114381400D02*
X123170759Y-114381400D01*
X123478041Y-113621400D02*
X123170759Y-113621400D01*
%TO.C,R603*%
X170313400Y-105264641D02*
X170313400Y-104957359D01*
X171073400Y-105264641D02*
X171073400Y-104957359D01*
%TO.C,C403*%
X147604800Y-72980980D02*
X147604800Y-72699820D01*
X148624800Y-72980980D02*
X148624800Y-72699820D01*
%TO.C,R403*%
X170061400Y-73767041D02*
X170061400Y-73459759D01*
X170821400Y-73767041D02*
X170821400Y-73459759D01*
%TO.C,J103*%
X155447400Y-118120400D02*
X155447400Y-118975400D01*
X155447400Y-122095400D02*
X155447400Y-123045400D01*
X155447400Y-123045400D02*
X164607400Y-123045400D01*
X164607400Y-118120400D02*
X164607400Y-118975400D01*
X164607400Y-122095400D02*
X164607400Y-123045400D01*
%TO.C,L401*%
X139167000Y-68340400D02*
X139167000Y-69190400D01*
X139167000Y-68340400D02*
X144087000Y-68340400D01*
X139167000Y-73060400D02*
X139167000Y-72210400D01*
X139167000Y-73060400D02*
X144087000Y-73060400D01*
X144087000Y-68340400D02*
X144087000Y-69190400D01*
X144087000Y-73060400D02*
X144087000Y-72210400D01*
%TO.C,R201*%
X139795200Y-102802159D02*
X139795200Y-103109441D01*
X139035200Y-102802159D02*
X139035200Y-103109441D01*
%TD*%
M02*
