M48
; DRILL file {KiCad (7.0.0)} date Wed Jun 28 18:16:22 2023
; FORMAT={-:-/ absolute / inch / decimal}
; #@! TF.CreationDate,2023-06-28T18:16:22+03:00
; #@! TF.GenerationSoftware,Kicad,Pcbnew,(7.0.0)
; #@! TF.FileFunction,Plated,1,2,PTH
FMAT,2
INCH
; #@! TA.AperFunction,Plated,PTH,ViaDrill
T1C0.0118
; #@! TA.AperFunction,Plated,PTH,ComponentDrill
T2C0.0236
; #@! TA.AperFunction,Plated,PTH,ComponentDrill
T3C0.0315
; #@! TA.AperFunction,Plated,PTH,ComponentDrill
T4C0.0512
%
G90
G05
T1
X4.3003Y-3.2682
X4.5203Y-3.4982
X4.5253Y-3.3832
X4.8303Y-3.3032
X4.9353Y-3.0682
X5.2463Y-4.3932
X5.2853Y-3.2932
X5.2853Y-3.5232
X5.2853Y-4.3932
X5.2853Y-4.5282
X5.3018Y-3.9073
X5.3503Y-3.2932
X5.3503Y-3.5232
X5.3653Y-4.3232
X5.3653Y-4.4632
X5.4273Y-4.0152
X5.4528Y-3.6123
X5.4628Y-3.9073
X5.4703Y-3.7832
X5.4723Y-3.8252
X5.4938Y-3.7223
X5.5018Y-4.1812
X5.5207Y-4.0636
X5.5718Y-3.7573
X5.5753Y-3.5892
X5.5803Y-2.7832
X5.5953Y-3.9232
X5.6113Y-4.1632
X5.6218Y-3.8123
X5.6773Y-4.5612
X5.6903Y-4.2482
X5.7282Y-3.6666
X5.7333Y-2.6512
X5.7673Y-2.9212
X5.8033Y-3.8832
X5.8053Y-3.8432
X5.8053Y-3.9232
X5.8073Y-2.7192
X5.8253Y-4.1532
X5.8313Y-2.9382
X5.8323Y-3.1982
X5.8333Y-4.5312
X5.8453Y-4.0888
X5.8753Y-3.7432
X5.8833Y-2.9152
X5.9293Y-4.1312
X6.0553Y-4.2552
X6.0993Y-4.3032
X6.2453Y-4.3732
X6.2653Y-4.0432
X6.2653Y-4.0932
X6.2653Y-4.1432
X6.2853Y-4.3732
X6.2873Y-4.5322
X6.3153Y-4.0432
X6.3153Y-4.0932
X6.3153Y-4.1432
X6.3153Y-4.1932
X6.3253Y-4.3732
X6.3653Y-4.0432
X6.3653Y-4.0932
X6.3653Y-4.1432
X6.3653Y-4.1932
X6.4313Y-4.5042
X6.7113Y-2.8392
X6.7473Y-2.9272
X6.7753Y-3.0032
X6.7813Y-2.9632
T3
X4.5927Y-4.3068
X4.5927Y-4.4068
X4.8927Y-4.3068
X4.8927Y-4.4068
T4
X4.1298Y-2.7771
X4.1298Y-2.9771
X4.1318Y-3.5261
X4.1318Y-3.7261
X4.1318Y-3.9261
X4.1318Y-4.1261
X4.1318Y-4.3261
X4.5103Y-3.6958
X4.5103Y-4.1682
X4.9906Y-3.6958
X4.9906Y-4.1682
X5.0693Y-3.932
T2
G00X6.1302Y-4.5732
M15
G01X6.1302Y-4.6126
M16
G05
G00X6.1302Y-4.7179
M15
G01X6.1302Y-4.7691
M16
G05
G00X6.4704Y-4.5732
M15
G01X6.4704Y-4.6126
M16
G05
G00X6.4704Y-4.7179
M15
G01X6.4704Y-4.7691
M16
G05
T0
M30
