%TF.GenerationSoftware,KiCad,Pcbnew,(7.0.0)*%
%TF.CreationDate,2023-06-28T18:16:18+03:00*%
%TF.ProjectId,GeoLock,47656f4c-6f63-46b2-9e6b-696361645f70,rev?*%
%TF.SameCoordinates,Original*%
%TF.FileFunction,Paste,Top*%
%TF.FilePolarity,Positive*%
%FSLAX46Y46*%
G04 Gerber Fmt 4.6, Leading zero omitted, Abs format (unit mm)*
G04 Created by KiCad (PCBNEW (7.0.0)) date 2023-06-28 18:16:18*
%MOMM*%
%LPD*%
G01*
G04 APERTURE LIST*
G04 Aperture macros list*
%AMRoundRect*
0 Rectangle with rounded corners*
0 $1 Rounding radius*
0 $2 $3 $4 $5 $6 $7 $8 $9 X,Y pos of 4 corners*
0 Add a 4 corners polygon primitive as box body*
4,1,4,$2,$3,$4,$5,$6,$7,$8,$9,$2,$3,0*
0 Add four circle primitives for the rounded corners*
1,1,$1+$1,$2,$3*
1,1,$1+$1,$4,$5*
1,1,$1+$1,$6,$7*
1,1,$1+$1,$8,$9*
0 Add four rect primitives between the rounded corners*
20,1,$1+$1,$2,$3,$4,$5,0*
20,1,$1+$1,$4,$5,$6,$7,0*
20,1,$1+$1,$6,$7,$8,$9,0*
20,1,$1+$1,$8,$9,$2,$3,0*%
%AMRotRect*
0 Rectangle, with rotation*
0 The origin of the aperture is its center*
0 $1 length*
0 $2 width*
0 $3 Rotation angle, in degrees counterclockwise*
0 Add horizontal line*
21,1,$1,$2,0,0,$3*%
G04 Aperture macros list end*
%ADD10RoundRect,0.140000X0.140000X0.170000X-0.140000X0.170000X-0.140000X-0.170000X0.140000X-0.170000X0*%
%ADD11RoundRect,0.135000X0.135000X0.185000X-0.135000X0.185000X-0.135000X-0.185000X0.135000X-0.185000X0*%
%ADD12RoundRect,0.250000X0.475000X-0.250000X0.475000X0.250000X-0.475000X0.250000X-0.475000X-0.250000X0*%
%ADD13RoundRect,0.250000X0.550000X-1.250000X0.550000X1.250000X-0.550000X1.250000X-0.550000X-1.250000X0*%
%ADD14RoundRect,0.135000X-0.135000X-0.185000X0.135000X-0.185000X0.135000X0.185000X-0.135000X0.185000X0*%
%ADD15RoundRect,0.147500X-0.147500X-0.172500X0.147500X-0.172500X0.147500X0.172500X-0.147500X0.172500X0*%
%ADD16RoundRect,0.135000X-0.185000X0.135000X-0.185000X-0.135000X0.185000X-0.135000X0.185000X0.135000X0*%
%ADD17RoundRect,0.250000X-1.100000X0.500000X-1.100000X-0.500000X1.100000X-0.500000X1.100000X0.500000X0*%
%ADD18RoundRect,0.250000X-1.000000X-0.650000X1.000000X-0.650000X1.000000X0.650000X-1.000000X0.650000X0*%
%ADD19RoundRect,0.140000X-0.140000X-0.170000X0.140000X-0.170000X0.140000X0.170000X-0.140000X0.170000X0*%
%ADD20RoundRect,0.147500X0.147500X0.172500X-0.147500X0.172500X-0.147500X-0.172500X0.147500X-0.172500X0*%
%ADD21RoundRect,0.250000X-1.500000X-1.000000X1.500000X-1.000000X1.500000X1.000000X-1.500000X1.000000X0*%
%ADD22RoundRect,0.140000X-0.170000X0.140000X-0.170000X-0.140000X0.170000X-0.140000X0.170000X0.140000X0*%
%ADD23RoundRect,0.150000X0.150000X-0.587500X0.150000X0.587500X-0.150000X0.587500X-0.150000X-0.587500X0*%
%ADD24RoundRect,0.150000X-0.150000X0.512500X-0.150000X-0.512500X0.150000X-0.512500X0.150000X0.512500X0*%
%ADD25O,0.550000X1.800000*%
%ADD26O,1.800000X0.550000*%
%ADD27R,0.800000X1.500000*%
%ADD28R,1.450000X2.000000*%
%ADD29RoundRect,0.200000X0.700000X0.200000X-0.700000X0.200000X-0.700000X-0.200000X0.700000X-0.200000X0*%
%ADD30RoundRect,0.250000X-0.475000X0.250000X-0.475000X-0.250000X0.475000X-0.250000X0.475000X0.250000X0*%
%ADD31RoundRect,0.250000X1.000000X-1.500000X1.000000X1.500000X-1.000000X1.500000X-1.000000X-1.500000X0*%
%ADD32RoundRect,0.140000X-0.021213X0.219203X-0.219203X0.021213X0.021213X-0.219203X0.219203X-0.021213X0*%
%ADD33R,1.000000X1.050000*%
%ADD34R,1.050000X2.200000*%
%ADD35RoundRect,0.147500X0.172500X-0.147500X0.172500X0.147500X-0.172500X0.147500X-0.172500X-0.147500X0*%
%ADD36RoundRect,0.225000X-0.250000X0.225000X-0.250000X-0.225000X0.250000X-0.225000X0.250000X0.225000X0*%
%ADD37RoundRect,0.140000X0.170000X-0.140000X0.170000X0.140000X-0.170000X0.140000X-0.170000X-0.140000X0*%
%ADD38RoundRect,0.218750X-0.256250X0.218750X-0.256250X-0.218750X0.256250X-0.218750X0.256250X0.218750X0*%
%ADD39RoundRect,0.112500X0.187500X0.112500X-0.187500X0.112500X-0.187500X-0.112500X0.187500X-0.112500X0*%
%ADD40R,0.700000X0.700000*%
%ADD41RotRect,0.900000X0.800000X45.000000*%
%ADD42RoundRect,0.135000X0.185000X-0.135000X0.185000X0.135000X-0.185000X0.135000X-0.185000X-0.135000X0*%
%ADD43RoundRect,0.112500X-0.187500X-0.112500X0.187500X-0.112500X0.187500X0.112500X-0.187500X0.112500X0*%
%ADD44RoundRect,0.218750X0.218750X0.256250X-0.218750X0.256250X-0.218750X-0.256250X0.218750X-0.256250X0*%
%ADD45RoundRect,0.075000X-0.662500X-0.075000X0.662500X-0.075000X0.662500X0.075000X-0.662500X0.075000X0*%
%ADD46RoundRect,0.075000X-0.075000X-0.662500X0.075000X-0.662500X0.075000X0.662500X-0.075000X0.662500X0*%
%ADD47RoundRect,0.250000X-0.550000X1.250000X-0.550000X-1.250000X0.550000X-1.250000X0.550000X1.250000X0*%
%ADD48R,0.900000X1.700000*%
%ADD49R,2.750000X5.500000*%
%ADD50RoundRect,0.250000X-0.250000X-0.475000X0.250000X-0.475000X0.250000X0.475000X-0.250000X0.475000X0*%
%ADD51RoundRect,0.200000X-0.275000X0.200000X-0.275000X-0.200000X0.275000X-0.200000X0.275000X0.200000X0*%
%ADD52RoundRect,0.200000X0.200000X-2.100000X0.200000X2.100000X-0.200000X2.100000X-0.200000X-2.100000X0*%
%ADD53RoundRect,0.250000X2.375000X-2.025000X2.375000X2.025000X-2.375000X2.025000X-2.375000X-2.025000X0*%
%ADD54RoundRect,0.140000X0.219203X0.021213X0.021213X0.219203X-0.219203X-0.021213X-0.021213X-0.219203X0*%
%ADD55R,0.375000X0.500000*%
%ADD56R,0.300000X0.650000*%
%ADD57RoundRect,0.100000X-0.637500X-0.100000X0.637500X-0.100000X0.637500X0.100000X-0.637500X0.100000X0*%
%ADD58RoundRect,0.225000X0.250000X-0.225000X0.250000X0.225000X-0.250000X0.225000X-0.250000X-0.225000X0*%
%ADD59R,1.000000X2.000000*%
%ADD60R,0.520000X1.000000*%
%ADD61R,0.270000X1.000000*%
%ADD62R,1.500000X2.500000*%
G04 APERTURE END LIST*
D10*
%TO.C,C206*%
X140850400Y-95967400D03*
X139890400Y-95967400D03*
%TD*%
D11*
%TO.C,R409*%
X147369400Y-68129000D03*
X146349400Y-68129000D03*
%TD*%
D10*
%TO.C,C410*%
X149255200Y-69348200D03*
X148295200Y-69348200D03*
%TD*%
D12*
%TO.C,C504*%
X117393400Y-71304800D03*
X117393400Y-69404800D03*
%TD*%
D13*
%TO.C,C502*%
X115361400Y-67662000D03*
X115361400Y-63262000D03*
%TD*%
D14*
%TO.C,R407*%
X148379400Y-75596600D03*
X149399400Y-75596600D03*
%TD*%
D15*
%TO.C,D401*%
X148255300Y-68129000D03*
X149225300Y-68129000D03*
%TD*%
D16*
%TO.C,R101*%
X111551400Y-74602800D03*
X111551400Y-75622800D03*
%TD*%
D17*
%TO.C,D301*%
X132165000Y-97473400D03*
X132165000Y-102273400D03*
%TD*%
D18*
%TO.C,D501*%
X119965400Y-80194800D03*
X123965400Y-80194800D03*
%TD*%
D19*
%TO.C,C408*%
X170442600Y-78492800D03*
X171402600Y-78492800D03*
%TD*%
D20*
%TO.C,D402*%
X149224400Y-66605800D03*
X148254400Y-66605800D03*
%TD*%
%TO.C,D602*%
X171638000Y-107725200D03*
X170668000Y-107725200D03*
%TD*%
D19*
%TO.C,C204*%
X149270400Y-96069800D03*
X150230400Y-96069800D03*
%TD*%
D21*
%TO.C,C506*%
X129091400Y-86315400D03*
X135591400Y-86315400D03*
%TD*%
D14*
%TO.C,R205*%
X145039400Y-106762400D03*
X146059400Y-106762400D03*
%TD*%
D22*
%TO.C,C402*%
X143405000Y-75734800D03*
X143405000Y-76694800D03*
%TD*%
D23*
%TO.C,Q101*%
X111554000Y-71276300D03*
X113454000Y-71276300D03*
X112504000Y-69401300D03*
%TD*%
D24*
%TO.C,U502*%
X139489000Y-88947300D03*
X138539000Y-88947300D03*
X137589000Y-88947300D03*
X137589000Y-91222300D03*
X139489000Y-91222300D03*
%TD*%
D14*
%TO.C,R602*%
X152837200Y-104273200D03*
X153857200Y-104273200D03*
%TD*%
D10*
%TO.C,C501*%
X122064400Y-77908800D03*
X121104400Y-77908800D03*
%TD*%
D25*
%TO.C,U402*%
X153842399Y-83140799D03*
X154942399Y-83140799D03*
X156042399Y-83140799D03*
X157142399Y-83140799D03*
X158242399Y-83140799D03*
X159342399Y-83140799D03*
X160442399Y-83140799D03*
X161542399Y-83140799D03*
X162642399Y-83140799D03*
X163742399Y-83140799D03*
X164842399Y-83140799D03*
X165942399Y-83140799D03*
D26*
X150992399Y-79590799D03*
X168792399Y-79590799D03*
X150992399Y-78490799D03*
X168792399Y-78490799D03*
X150992399Y-77390799D03*
X168792399Y-77390799D03*
X150992399Y-76290799D03*
X168792399Y-76290799D03*
X150992399Y-75190799D03*
X168792399Y-75190799D03*
X150992399Y-74090799D03*
X168792399Y-74090799D03*
X150992399Y-72990799D03*
X168792399Y-72990799D03*
X150992399Y-71890799D03*
X168792399Y-71890799D03*
X150992399Y-70790799D03*
X168792399Y-70790799D03*
D25*
X153842399Y-67240799D03*
X154942399Y-67240799D03*
X156042399Y-67240799D03*
X157142399Y-67240799D03*
X158242399Y-67240799D03*
X159342399Y-67240799D03*
X160442399Y-67240799D03*
X161542399Y-67240799D03*
X162642399Y-67240799D03*
X163742399Y-67240799D03*
X164842399Y-67240799D03*
X165942399Y-67240799D03*
%TD*%
D27*
%TO.C,J201*%
X149306599Y-117303399D03*
X148206599Y-117303399D03*
X147106599Y-117303399D03*
X146006599Y-117303399D03*
X144906599Y-117303399D03*
X143806599Y-117303399D03*
X142706599Y-117303399D03*
X141606599Y-117303399D03*
D28*
X152981599Y-119903399D03*
X152981599Y-111603399D03*
X139231599Y-119903399D03*
X139231599Y-111603399D03*
%TD*%
D29*
%TO.C,U601*%
X168636400Y-106810800D03*
X168636400Y-105710800D03*
X168636400Y-104610800D03*
X168636400Y-103510800D03*
X168636400Y-102410800D03*
X168636400Y-101310800D03*
X168636400Y-100210800D03*
X168636400Y-97210800D03*
X168636400Y-96110800D03*
X168636400Y-95010800D03*
X168636400Y-93910800D03*
X168636400Y-92810800D03*
X156636400Y-92810800D03*
X156636400Y-93910800D03*
X156636400Y-95010800D03*
X156636400Y-96110800D03*
X156636400Y-97210800D03*
X156636400Y-100210800D03*
X156636400Y-101310800D03*
X156636400Y-102410800D03*
X156636400Y-103510800D03*
X156636400Y-104610800D03*
X156636400Y-105710800D03*
X156636400Y-106810800D03*
%TD*%
D14*
%TO.C,R404*%
X170382600Y-77527800D03*
X171402600Y-77527800D03*
%TD*%
D10*
%TO.C,C510*%
X139470200Y-93608600D03*
X138510200Y-93608600D03*
%TD*%
D30*
%TO.C,C407*%
X145460400Y-70547800D03*
X145460400Y-72447800D03*
%TD*%
D24*
%TO.C,U401*%
X142104600Y-74064200D03*
X141154600Y-74064200D03*
X140204600Y-74064200D03*
X140204600Y-76339200D03*
X142104600Y-76339200D03*
%TD*%
D31*
%TO.C,C505*%
X134284400Y-76398800D03*
X134284400Y-69898800D03*
%TD*%
D32*
%TO.C,C208*%
X135893811Y-97600778D03*
X135214989Y-98279600D03*
%TD*%
D10*
%TO.C,C511*%
X139465000Y-92643400D03*
X138505000Y-92643400D03*
%TD*%
D14*
%TO.C,R406*%
X170380600Y-75190800D03*
X171400600Y-75190800D03*
%TD*%
D33*
%TO.C,J601*%
X170365199Y-89727599D03*
D34*
X168890199Y-88202599D03*
X171840199Y-88202599D03*
%TD*%
D35*
%TO.C,L601*%
X170352400Y-94880800D03*
X170352400Y-93910800D03*
%TD*%
D10*
%TO.C,C508*%
X139515800Y-86553000D03*
X138555800Y-86553000D03*
%TD*%
D36*
%TO.C,C401*%
X159341600Y-63569400D03*
X159341600Y-65119400D03*
%TD*%
D22*
%TO.C,C211*%
X134232000Y-109284400D03*
X134232000Y-110244400D03*
%TD*%
D37*
%TO.C,C101*%
X166016400Y-116638400D03*
X166016400Y-115678400D03*
%TD*%
D38*
%TO.C,FB501*%
X140723400Y-85731100D03*
X140723400Y-87306100D03*
%TD*%
D14*
%TO.C,R206*%
X145124800Y-93956000D03*
X146144800Y-93956000D03*
%TD*%
D39*
%TO.C,D101*%
X113744400Y-73209800D03*
X111644400Y-73209800D03*
%TD*%
D40*
%TO.C,D202*%
X135348999Y-112798399D03*
X135348999Y-113898399D03*
X137178999Y-113898399D03*
X137178999Y-112798399D03*
%TD*%
D10*
%TO.C,C203*%
X139463400Y-101533400D03*
X138503400Y-101533400D03*
%TD*%
D11*
%TO.C,R102*%
X157845000Y-114407800D03*
X156825000Y-114407800D03*
%TD*%
D41*
%TO.C,Y201*%
X136720522Y-100068482D03*
X137710471Y-99078533D03*
X136932654Y-98300716D03*
X135942705Y-99290665D03*
%TD*%
D42*
%TO.C,R601*%
X170352400Y-96835800D03*
X170352400Y-95815800D03*
%TD*%
D43*
%TO.C,D601*%
X152807000Y-105916200D03*
X154907000Y-105916200D03*
%TD*%
D44*
%TO.C,FB401*%
X148749900Y-70567400D03*
X147174900Y-70567400D03*
%TD*%
D45*
%TO.C,U201*%
X140887000Y-96942400D03*
X140887000Y-97442400D03*
X140887000Y-97942400D03*
X140887000Y-98442400D03*
X140887000Y-98942400D03*
X140887000Y-99442400D03*
X140887000Y-99942400D03*
X140887000Y-100442400D03*
X140887000Y-100942400D03*
X140887000Y-101442400D03*
X140887000Y-101942400D03*
X140887000Y-102442400D03*
D46*
X142299500Y-103854900D03*
X142799500Y-103854900D03*
X143299500Y-103854900D03*
X143799500Y-103854900D03*
X144299500Y-103854900D03*
X144799500Y-103854900D03*
X145299500Y-103854900D03*
X145799500Y-103854900D03*
X146299500Y-103854900D03*
X146799500Y-103854900D03*
X147299500Y-103854900D03*
X147799500Y-103854900D03*
D45*
X149212000Y-102442400D03*
X149212000Y-101942400D03*
X149212000Y-101442400D03*
X149212000Y-100942400D03*
X149212000Y-100442400D03*
X149212000Y-99942400D03*
X149212000Y-99442400D03*
X149212000Y-98942400D03*
X149212000Y-98442400D03*
X149212000Y-97942400D03*
X149212000Y-97442400D03*
X149212000Y-96942400D03*
D46*
X147799500Y-95529900D03*
X147299500Y-95529900D03*
X146799500Y-95529900D03*
X146299500Y-95529900D03*
X145799500Y-95529900D03*
X145299500Y-95529900D03*
X144799500Y-95529900D03*
X144299500Y-95529900D03*
X143799500Y-95529900D03*
X143299500Y-95529900D03*
X142799500Y-95529900D03*
X142299500Y-95529900D03*
%TD*%
D16*
%TO.C,R402*%
X143405000Y-77810400D03*
X143405000Y-78830400D03*
%TD*%
D47*
%TO.C,C503*%
X115488400Y-74946800D03*
X115488400Y-79346800D03*
%TD*%
D48*
%TO.C,SW401*%
X145619999Y-81279999D03*
X149019999Y-81279999D03*
%TD*%
D10*
%TO.C,C507*%
X139510600Y-85587800D03*
X138550600Y-85587800D03*
%TD*%
D49*
%TO.C,L501*%
X118679399Y-86696399D03*
X125429399Y-86696399D03*
%TD*%
D10*
%TO.C,C509*%
X139510600Y-87518200D03*
X138550600Y-87518200D03*
%TD*%
D50*
%TO.C,C405*%
X140219800Y-78269600D03*
X142119800Y-78269600D03*
%TD*%
D51*
%TO.C,R401*%
X144660400Y-75965400D03*
X144660400Y-77615400D03*
%TD*%
D14*
%TO.C,R103*%
X161602200Y-114407800D03*
X162622200Y-114407800D03*
%TD*%
D40*
%TO.C,D201*%
X135348999Y-109284399D03*
X135348999Y-110384399D03*
X137178999Y-110384399D03*
X137178999Y-109284399D03*
%TD*%
D22*
%TO.C,C210*%
X134232000Y-112798400D03*
X134232000Y-113758400D03*
%TD*%
D50*
%TO.C,C406*%
X143638600Y-74205600D03*
X145538600Y-74205600D03*
%TD*%
D37*
%TO.C,C207*%
X138475400Y-103433200D03*
X138475400Y-102473200D03*
%TD*%
D36*
%TO.C,C601*%
X151467600Y-104971400D03*
X151467600Y-106521400D03*
%TD*%
D14*
%TO.C,R203*%
X140645200Y-106686200D03*
X141665200Y-106686200D03*
%TD*%
D11*
%TO.C,R204*%
X145041400Y-105746400D03*
X144021400Y-105746400D03*
%TD*%
D37*
%TO.C,C409*%
X144990600Y-69322800D03*
X144990600Y-68362800D03*
%TD*%
D52*
%TO.C,U501*%
X120314400Y-74793800D03*
X121584400Y-74793800D03*
X122854400Y-74793800D03*
X124124400Y-74793800D03*
X125394400Y-74793800D03*
X126664400Y-74793800D03*
X127934400Y-74793800D03*
D53*
X121349400Y-68068800D03*
X126899400Y-68068800D03*
X121349400Y-63218800D03*
X126899400Y-63218800D03*
%TD*%
D22*
%TO.C,C205*%
X148724400Y-104476400D03*
X148724400Y-105436400D03*
%TD*%
D11*
%TO.C,R207*%
X143354800Y-94006800D03*
X142334800Y-94006800D03*
%TD*%
D54*
%TO.C,C209*%
X135808400Y-100854211D03*
X135129578Y-100175389D03*
%TD*%
D55*
%TO.C,U101*%
X159131499Y-114216399D03*
D56*
X159668999Y-114291399D03*
D55*
X160206499Y-114216399D03*
X160206499Y-112516399D03*
D56*
X159668999Y-112441399D03*
D55*
X159131499Y-112516399D03*
%TD*%
D22*
%TO.C,C404*%
X149351400Y-72043800D03*
X149351400Y-73003800D03*
%TD*%
D14*
%TO.C,R405*%
X170382600Y-76283000D03*
X171402600Y-76283000D03*
%TD*%
%TO.C,R202*%
X140645200Y-105695600D03*
X141665200Y-105695600D03*
%TD*%
D33*
%TO.C,J402*%
X154942399Y-65031799D03*
D34*
X153467399Y-63506799D03*
X156417399Y-63506799D03*
%TD*%
D57*
%TO.C,U602*%
X156636400Y-109023800D03*
X156636400Y-109673800D03*
X156636400Y-110323800D03*
X156636400Y-110973800D03*
X162361400Y-110973800D03*
X162361400Y-110323800D03*
X162361400Y-109673800D03*
X162361400Y-109023800D03*
%TD*%
D48*
%TO.C,SW201*%
X126450399Y-110953399D03*
X129850399Y-110953399D03*
%TD*%
D11*
%TO.C,R408*%
X147365400Y-66605800D03*
X146345400Y-66605800D03*
%TD*%
%TO.C,R301*%
X123834400Y-114001400D03*
X122814400Y-114001400D03*
%TD*%
D42*
%TO.C,R603*%
X170693400Y-105621000D03*
X170693400Y-104601000D03*
%TD*%
D58*
%TO.C,C403*%
X148114800Y-73615400D03*
X148114800Y-72065400D03*
%TD*%
D42*
%TO.C,R403*%
X170441400Y-74123400D03*
X170441400Y-73103400D03*
%TD*%
D59*
%TO.C,J103*%
X158627399Y-120485399D03*
X161427399Y-120485399D03*
D60*
X156927399Y-116285399D03*
X157677399Y-116285399D03*
D61*
X158277399Y-116285399D03*
X159777399Y-116285399D03*
X160777399Y-116285399D03*
X161777399Y-116285399D03*
D60*
X162377399Y-116285399D03*
X163127399Y-116285399D03*
X163127399Y-116285399D03*
X162377399Y-116285399D03*
D61*
X161277399Y-116285399D03*
X160277399Y-116285399D03*
X159277399Y-116285399D03*
X158777399Y-116285399D03*
D60*
X157677399Y-116285399D03*
X156927399Y-116285399D03*
%TD*%
D62*
%TO.C,L401*%
X139776999Y-70700399D03*
X143476999Y-70700399D03*
%TD*%
D16*
%TO.C,R201*%
X139415200Y-102445800D03*
X139415200Y-103465800D03*
%TD*%
M02*
