%TF.GenerationSoftware,KiCad,Pcbnew,(7.0.0)*%
%TF.CreationDate,2023-06-28T18:16:18+03:00*%
%TF.ProjectId,GeoLock,47656f4c-6f63-46b2-9e6b-696361645f70,rev?*%
%TF.SameCoordinates,Original*%
%TF.FileFunction,Legend,Bot*%
%TF.FilePolarity,Positive*%
%FSLAX46Y46*%
G04 Gerber Fmt 4.6, Leading zero omitted, Abs format (unit mm)*
G04 Created by KiCad (PCBNEW (7.0.0)) date 2023-06-28 18:16:18*
%MOMM*%
%LPD*%
G01*
G04 APERTURE LIST*
%ADD10C,0.200000*%
%ADD11C,0.120000*%
G04 APERTURE END LIST*
D10*
X102686923Y-110398304D02*
X102686923Y-109598304D01*
X102686923Y-109598304D02*
X102229780Y-110398304D01*
X102229780Y-110398304D02*
X102229780Y-109598304D01*
X101391685Y-110322114D02*
X101429781Y-110360209D01*
X101429781Y-110360209D02*
X101544066Y-110398304D01*
X101544066Y-110398304D02*
X101620257Y-110398304D01*
X101620257Y-110398304D02*
X101734543Y-110360209D01*
X101734543Y-110360209D02*
X101810733Y-110284019D01*
X101810733Y-110284019D02*
X101848828Y-110207828D01*
X101848828Y-110207828D02*
X101886924Y-110055447D01*
X101886924Y-110055447D02*
X101886924Y-109941161D01*
X101886924Y-109941161D02*
X101848828Y-109788780D01*
X101848828Y-109788780D02*
X101810733Y-109712590D01*
X101810733Y-109712590D02*
X101734543Y-109636400D01*
X101734543Y-109636400D02*
X101620257Y-109598304D01*
X101620257Y-109598304D02*
X101544066Y-109598304D01*
X101544066Y-109598304D02*
X101429781Y-109636400D01*
X101429781Y-109636400D02*
X101391685Y-109674495D01*
X102267876Y-104429400D02*
X102344066Y-104391304D01*
X102344066Y-104391304D02*
X102458352Y-104391304D01*
X102458352Y-104391304D02*
X102572638Y-104429400D01*
X102572638Y-104429400D02*
X102648828Y-104505590D01*
X102648828Y-104505590D02*
X102686923Y-104581780D01*
X102686923Y-104581780D02*
X102725019Y-104734161D01*
X102725019Y-104734161D02*
X102725019Y-104848447D01*
X102725019Y-104848447D02*
X102686923Y-105000828D01*
X102686923Y-105000828D02*
X102648828Y-105077019D01*
X102648828Y-105077019D02*
X102572638Y-105153209D01*
X102572638Y-105153209D02*
X102458352Y-105191304D01*
X102458352Y-105191304D02*
X102382161Y-105191304D01*
X102382161Y-105191304D02*
X102267876Y-105153209D01*
X102267876Y-105153209D02*
X102229780Y-105115114D01*
X102229780Y-105115114D02*
X102229780Y-104848447D01*
X102229780Y-104848447D02*
X102382161Y-104848447D01*
X101886923Y-105191304D02*
X101886923Y-104391304D01*
X101886923Y-104391304D02*
X101429780Y-105191304D01*
X101429780Y-105191304D02*
X101429780Y-104391304D01*
X101048828Y-105191304D02*
X101048828Y-104391304D01*
X101048828Y-104391304D02*
X100858352Y-104391304D01*
X100858352Y-104391304D02*
X100744066Y-104429400D01*
X100744066Y-104429400D02*
X100667876Y-104505590D01*
X100667876Y-104505590D02*
X100629781Y-104581780D01*
X100629781Y-104581780D02*
X100591685Y-104734161D01*
X100591685Y-104734161D02*
X100591685Y-104848447D01*
X100591685Y-104848447D02*
X100629781Y-105000828D01*
X100629781Y-105000828D02*
X100667876Y-105077019D01*
X100667876Y-105077019D02*
X100744066Y-105153209D01*
X100744066Y-105153209D02*
X100858352Y-105191304D01*
X100858352Y-105191304D02*
X101048828Y-105191304D01*
X102686923Y-100238304D02*
X102686923Y-99438304D01*
X102686923Y-99438304D02*
X102382161Y-99438304D01*
X102382161Y-99438304D02*
X102305971Y-99476400D01*
X102305971Y-99476400D02*
X102267876Y-99514495D01*
X102267876Y-99514495D02*
X102229780Y-99590685D01*
X102229780Y-99590685D02*
X102229780Y-99704971D01*
X102229780Y-99704971D02*
X102267876Y-99781161D01*
X102267876Y-99781161D02*
X102305971Y-99819257D01*
X102305971Y-99819257D02*
X102382161Y-99857352D01*
X102382161Y-99857352D02*
X102686923Y-99857352D01*
X101734542Y-99438304D02*
X101582161Y-99438304D01*
X101582161Y-99438304D02*
X101505971Y-99476400D01*
X101505971Y-99476400D02*
X101429780Y-99552590D01*
X101429780Y-99552590D02*
X101391685Y-99704971D01*
X101391685Y-99704971D02*
X101391685Y-99971638D01*
X101391685Y-99971638D02*
X101429780Y-100124019D01*
X101429780Y-100124019D02*
X101505971Y-100200209D01*
X101505971Y-100200209D02*
X101582161Y-100238304D01*
X101582161Y-100238304D02*
X101734542Y-100238304D01*
X101734542Y-100238304D02*
X101810733Y-100200209D01*
X101810733Y-100200209D02*
X101886923Y-100124019D01*
X101886923Y-100124019D02*
X101925019Y-99971638D01*
X101925019Y-99971638D02*
X101925019Y-99704971D01*
X101925019Y-99704971D02*
X101886923Y-99552590D01*
X101886923Y-99552590D02*
X101810733Y-99476400D01*
X101810733Y-99476400D02*
X101734542Y-99438304D01*
X100667876Y-100238304D02*
X101048828Y-100238304D01*
X101048828Y-100238304D02*
X101048828Y-99438304D01*
X100401209Y-99819257D02*
X100134543Y-99819257D01*
X100020257Y-100238304D02*
X100401209Y-100238304D01*
X100401209Y-100238304D02*
X100401209Y-99438304D01*
X100401209Y-99438304D02*
X100020257Y-99438304D01*
X102679523Y-89951304D02*
X102679523Y-89151304D01*
X102679523Y-89151304D02*
X102222380Y-89951304D01*
X102222380Y-89951304D02*
X102222380Y-89151304D01*
X101689047Y-89151304D02*
X101536666Y-89151304D01*
X101536666Y-89151304D02*
X101460476Y-89189400D01*
X101460476Y-89189400D02*
X101384285Y-89265590D01*
X101384285Y-89265590D02*
X101346190Y-89417971D01*
X101346190Y-89417971D02*
X101346190Y-89684638D01*
X101346190Y-89684638D02*
X101384285Y-89837019D01*
X101384285Y-89837019D02*
X101460476Y-89913209D01*
X101460476Y-89913209D02*
X101536666Y-89951304D01*
X101536666Y-89951304D02*
X101689047Y-89951304D01*
X101689047Y-89951304D02*
X101765238Y-89913209D01*
X101765238Y-89913209D02*
X101841428Y-89837019D01*
X101841428Y-89837019D02*
X101879524Y-89684638D01*
X101879524Y-89684638D02*
X101879524Y-89417971D01*
X101879524Y-89417971D02*
X101841428Y-89265590D01*
X101841428Y-89265590D02*
X101765238Y-89189400D01*
X101765238Y-89189400D02*
X101689047Y-89151304D01*
X102267876Y-94269400D02*
X102344066Y-94231304D01*
X102344066Y-94231304D02*
X102458352Y-94231304D01*
X102458352Y-94231304D02*
X102572638Y-94269400D01*
X102572638Y-94269400D02*
X102648828Y-94345590D01*
X102648828Y-94345590D02*
X102686923Y-94421780D01*
X102686923Y-94421780D02*
X102725019Y-94574161D01*
X102725019Y-94574161D02*
X102725019Y-94688447D01*
X102725019Y-94688447D02*
X102686923Y-94840828D01*
X102686923Y-94840828D02*
X102648828Y-94917019D01*
X102648828Y-94917019D02*
X102572638Y-94993209D01*
X102572638Y-94993209D02*
X102458352Y-95031304D01*
X102458352Y-95031304D02*
X102382161Y-95031304D01*
X102382161Y-95031304D02*
X102267876Y-94993209D01*
X102267876Y-94993209D02*
X102229780Y-94955114D01*
X102229780Y-94955114D02*
X102229780Y-94688447D01*
X102229780Y-94688447D02*
X102382161Y-94688447D01*
X101886923Y-95031304D02*
X101886923Y-94231304D01*
X101886923Y-94231304D02*
X101429780Y-95031304D01*
X101429780Y-95031304D02*
X101429780Y-94231304D01*
X101048828Y-95031304D02*
X101048828Y-94231304D01*
X101048828Y-94231304D02*
X100858352Y-94231304D01*
X100858352Y-94231304D02*
X100744066Y-94269400D01*
X100744066Y-94269400D02*
X100667876Y-94345590D01*
X100667876Y-94345590D02*
X100629781Y-94421780D01*
X100629781Y-94421780D02*
X100591685Y-94574161D01*
X100591685Y-94574161D02*
X100591685Y-94688447D01*
X100591685Y-94688447D02*
X100629781Y-94840828D01*
X100629781Y-94840828D02*
X100667876Y-94917019D01*
X100667876Y-94917019D02*
X100744066Y-94993209D01*
X100744066Y-94993209D02*
X100858352Y-95031304D01*
X100858352Y-95031304D02*
X101048828Y-95031304D01*
X102260476Y-75264000D02*
X102336666Y-75225904D01*
X102336666Y-75225904D02*
X102450952Y-75225904D01*
X102450952Y-75225904D02*
X102565238Y-75264000D01*
X102565238Y-75264000D02*
X102641428Y-75340190D01*
X102641428Y-75340190D02*
X102679523Y-75416380D01*
X102679523Y-75416380D02*
X102717619Y-75568761D01*
X102717619Y-75568761D02*
X102717619Y-75683047D01*
X102717619Y-75683047D02*
X102679523Y-75835428D01*
X102679523Y-75835428D02*
X102641428Y-75911619D01*
X102641428Y-75911619D02*
X102565238Y-75987809D01*
X102565238Y-75987809D02*
X102450952Y-76025904D01*
X102450952Y-76025904D02*
X102374761Y-76025904D01*
X102374761Y-76025904D02*
X102260476Y-75987809D01*
X102260476Y-75987809D02*
X102222380Y-75949714D01*
X102222380Y-75949714D02*
X102222380Y-75683047D01*
X102222380Y-75683047D02*
X102374761Y-75683047D01*
X101879523Y-76025904D02*
X101879523Y-75225904D01*
X101879523Y-75225904D02*
X101422380Y-76025904D01*
X101422380Y-76025904D02*
X101422380Y-75225904D01*
X101041428Y-76025904D02*
X101041428Y-75225904D01*
X101041428Y-75225904D02*
X100850952Y-75225904D01*
X100850952Y-75225904D02*
X100736666Y-75264000D01*
X100736666Y-75264000D02*
X100660476Y-75340190D01*
X100660476Y-75340190D02*
X100622381Y-75416380D01*
X100622381Y-75416380D02*
X100584285Y-75568761D01*
X100584285Y-75568761D02*
X100584285Y-75683047D01*
X100584285Y-75683047D02*
X100622381Y-75835428D01*
X100622381Y-75835428D02*
X100660476Y-75911619D01*
X100660476Y-75911619D02*
X100736666Y-75987809D01*
X100736666Y-75987809D02*
X100850952Y-76025904D01*
X100850952Y-76025904D02*
X101041428Y-76025904D01*
X102806523Y-70596542D02*
X102197000Y-70596542D01*
X102501761Y-70901304D02*
X102501761Y-70291780D01*
X101397000Y-70901304D02*
X101854143Y-70901304D01*
X101625571Y-70901304D02*
X101625571Y-70101304D01*
X101625571Y-70101304D02*
X101701762Y-70215590D01*
X101701762Y-70215590D02*
X101777952Y-70291780D01*
X101777952Y-70291780D02*
X101854143Y-70329876D01*
X101092238Y-70177495D02*
X101054142Y-70139400D01*
X101054142Y-70139400D02*
X100977952Y-70101304D01*
X100977952Y-70101304D02*
X100787476Y-70101304D01*
X100787476Y-70101304D02*
X100711285Y-70139400D01*
X100711285Y-70139400D02*
X100673190Y-70177495D01*
X100673190Y-70177495D02*
X100635095Y-70253685D01*
X100635095Y-70253685D02*
X100635095Y-70329876D01*
X100635095Y-70329876D02*
X100673190Y-70444161D01*
X100673190Y-70444161D02*
X101130333Y-70901304D01*
X101130333Y-70901304D02*
X100635095Y-70901304D01*
X100406523Y-70101304D02*
X100139856Y-70901304D01*
X100139856Y-70901304D02*
X99873190Y-70101304D01*
D11*
%TO.C,J401*%
X152078400Y-81704400D02*
X152078400Y-68584400D01*
X152488400Y-81704400D02*
X152078400Y-81704400D01*
X154488400Y-81704400D02*
X162188400Y-81704400D01*
X165888400Y-81704400D02*
X167748400Y-81704400D01*
X167748400Y-81704400D02*
X167748400Y-77944400D01*
X167748400Y-70694400D02*
X167748400Y-68584400D01*
X152488400Y-68584400D02*
X152078400Y-68584400D01*
X154488400Y-68584400D02*
X162188400Y-68584400D01*
X165888400Y-68584400D02*
X167748400Y-68584400D01*
%TD*%
M02*
